<svg width="597" height="284" viewBox="0 0 597 284" fill="none" xmlns="http://www.w3.org/2000/svg">
<rect width="597" height="284" fill="white"/>
<path d="M53.829 77.658C66.9894 77.658 77.658 66.9894 77.658 53.829C77.658 40.6686 66.9894 30 53.829 30C40.6686 30 30 40.6686 30 53.829C30 66.9894 40.6686 77.658 53.829 77.658Z" fill="#3B5998"/>
<path d="M59.8199 54.7621H55.5679V70.3396H49.1257V54.7621H46.0618V49.2876H49.1257V45.7449C49.1257 43.2115 50.3291 39.2445 55.6252 39.2445L60.3972 39.2645V44.5785H56.9348C56.3669 44.5785 55.5683 44.8622 55.5683 46.0707V49.2926H60.3828L59.8199 54.7621Z" fill="white"/>
<path d="M131.829 77.658C144.989 77.658 155.658 66.9894 155.658 53.829C155.658 40.6686 144.989 30 131.829 30C118.669 30 108 40.6686 108 53.829C108 66.9894 118.669 77.658 131.829 77.658Z" fill="#4D76A1"/>
<path fill-rule="evenodd" clip-rule="evenodd" d="M130.929 64.2805H132.799C132.799 64.2805 133.364 64.2185 133.653 63.9076C133.918 63.6221 133.91 63.0861 133.91 63.0861C133.91 63.0861 133.873 60.5765 135.038 60.2069C136.186 59.8429 137.661 62.6324 139.223 63.705C140.405 64.5167 141.303 64.3387 141.303 64.3387L145.482 64.2805C145.482 64.2805 147.668 64.1459 146.631 62.4272C146.546 62.2866 146.027 61.1559 143.524 58.8323C140.904 56.4005 141.255 56.7938 144.411 52.5872C146.333 50.0254 147.102 48.4613 146.862 47.7915C146.633 47.1535 145.219 47.3221 145.219 47.3221L140.514 47.3514C140.514 47.3514 140.166 47.3038 139.907 47.4584C139.654 47.6101 139.491 47.9635 139.491 47.9635C139.491 47.9635 138.747 49.9459 137.754 51.6319C135.659 55.1894 134.821 55.3772 134.479 55.1563C133.682 54.6415 133.881 53.088 133.881 51.9845C133.881 48.537 134.404 47.0995 132.863 46.7274C132.351 46.6038 131.975 46.5222 130.667 46.5091C128.988 46.4916 127.567 46.5142 126.763 46.9084C126.228 47.1704 125.815 47.7545 126.066 47.7881C126.377 47.8297 127.082 47.9779 127.455 48.4864C127.937 49.1423 127.92 50.6154 127.92 50.6154C127.92 50.6154 128.197 54.6737 127.273 55.1779C126.639 55.5237 125.769 54.8177 123.901 51.5903C122.944 49.937 122.222 48.1096 122.222 48.1096C122.222 48.1096 122.082 47.7681 121.834 47.5855C121.532 47.3641 121.111 47.2936 121.111 47.2936L116.64 47.3229C116.64 47.3229 115.969 47.3416 115.723 47.6335C115.503 47.893 115.705 48.4299 115.705 48.4299C115.705 48.4299 119.205 56.6188 123.168 60.7455C126.802 64.529 130.929 64.2805 130.929 64.2805Z" fill="white"/>
<path d="M209.829 77.658C222.989 77.658 233.658 66.9894 233.658 53.829C233.658 40.6686 222.989 30 209.829 30C196.669 30 186 40.6686 186 53.829C186 66.9894 196.669 77.658 209.829 77.658Z" fill="#55ACEE"/>
<path d="M224.425 47.1254C223.404 47.5782 222.305 47.8844 221.153 48.0212C222.329 47.3165 223.232 46.2015 223.658 44.8706C222.558 45.5235 221.338 45.9971 220.041 46.2524C219.002 45.1459 217.522 44.4543 215.883 44.4543C212.738 44.4543 210.187 47.0051 210.187 50.1502C210.187 50.5966 210.237 51.0312 210.335 51.4483C205.601 51.2109 201.404 48.9434 198.595 45.4963C198.104 46.3374 197.823 47.3165 197.823 48.3602C197.823 50.3358 198.829 52.08 200.357 53.1011C199.424 53.0718 198.545 52.8157 197.777 52.3879C197.777 52.4122 197.777 52.4364 197.777 52.4602C197.777 55.2199 199.741 57.5218 202.346 58.0447C201.869 58.1755 201.365 58.2448 200.846 58.2448C200.478 58.2448 200.122 58.2095 199.774 58.1433C200.499 60.4056 202.602 62.0525 205.095 62.0988C203.145 63.6267 200.69 64.537 198.02 64.537C197.561 64.537 197.107 64.5103 196.662 64.4572C199.182 66.0739 202.176 67.0165 205.393 67.0165C215.869 67.0165 221.599 58.3374 221.599 50.8099C221.599 50.5631 221.593 50.3171 221.582 50.0733C222.696 49.2705 223.662 48.2676 224.425 47.1254Z" fill="white"/>
<path d="M287.944 30C301.169 30 311.888 40.7209 311.888 53.9441C311.888 67.1673 301.169 77.8881 287.944 77.8881C274.719 77.8881 264 67.1671 264 53.9441C264 40.7211 274.719 30 287.944 30Z" fill="#E41811"/>
<path d="M287.366 49.456C288.123 49.456 288.716 49.215 289.15 48.8724C289.581 48.5282 289.797 48.0599 289.797 47.4582V43.8277C289.797 43.2934 289.577 42.8519 289.138 42.5123C288.697 42.1725 288.133 42.0035 287.441 42.0035C286.685 42.0035 286.081 42.1636 285.633 42.4853C285.184 42.8085 284.96 43.2395 284.96 43.7858V47.4282C284.96 48.0267 285.178 48.4996 285.615 48.8544C286.052 49.2091 286.638 49.456 287.366 49.456ZM286.575 43.9625C286.575 43.8247 286.647 43.7141 286.789 43.6258C286.933 43.5405 287.118 43.4986 287.346 43.4986C287.594 43.4986 287.795 43.5405 287.946 43.6258C288.099 43.7141 288.173 43.8249 288.173 43.9625V47.4134C288.173 47.584 288.099 47.7186 287.949 47.8159C287.799 47.9118 287.599 47.9611 287.346 47.9611C287.099 47.9611 286.907 47.9147 286.774 47.8174C286.642 47.7231 286.575 47.5884 286.575 47.4134V43.9625ZM292.377 49.4516C292.643 49.4516 292.914 49.2988 293.195 49.1463C293.48 48.9906 293.75 48.7631 294.011 48.4669V49.2735H295.425V41.993H294.011V47.5196C293.879 47.6767 293.733 47.8069 293.576 47.9101C293.415 48.0119 293.284 48.0643 293.181 48.0643C293.047 48.0643 292.95 48.0268 292.893 47.9476C292.833 47.8713 292.801 47.7471 292.801 47.5764V41.9945H291.389V48.0778C291.389 48.5118 291.475 48.8366 291.638 49.0521C291.804 49.2689 292.049 49.4516 292.377 49.4516ZM296.489 52.4611H279.399C276.681 52.4611 274.48 54.5787 274.48 57.1871V61.1828C274.48 63.7927 276.681 65.9103 279.399 65.9103H296.489C299.205 65.9103 301.408 63.7927 301.408 61.1828V57.1871C301.408 54.5785 299.205 52.4611 296.489 52.4611ZM281.942 56.5166H280.43V62.775H278.968V56.5166H277.457V55.4496H281.942C281.942 55.4496 281.942 56.5166 281.942 56.5166ZM286.452 62.8618H284.876V62.2123C284.583 62.4518 284.282 62.6358 283.965 62.7586C283.652 62.8873 283.347 62.9486 283.051 62.9486C282.686 62.9486 282.413 62.8603 282.228 62.6823C282.045 62.5072 281.951 62.2439 281.951 61.8921V56.9507H283.527V61.4836C283.527 61.6243 283.559 61.7231 283.622 61.7859C283.691 61.8502 283.8 61.8786 283.947 61.8786C284.061 61.8786 284.211 61.8382 284.387 61.7544C284.565 61.672 284.728 61.5673 284.876 61.4371V56.9491H286.452C286.452 56.9491 286.452 62.8618 286.452 62.8618ZM292.417 61.7364C292.417 62.1241 292.294 62.4188 292.05 62.6269C291.809 62.8348 291.453 62.9366 290.994 62.9366C290.687 62.9366 290.415 62.8976 290.178 62.8184C289.94 62.7392 289.716 62.6164 289.512 62.4472V62.8662H287.94V55.4496H289.512V57.8396C289.725 57.675 289.948 57.5463 290.18 57.4595C290.418 57.3712 290.657 57.3293 290.898 57.3293C291.39 57.3293 291.766 57.4445 292.025 57.6765C292.287 57.9099 292.417 58.2527 292.417 58.7001C292.417 58.6999 292.417 61.7364 292.417 61.7364ZM298.412 60.0678H295.509V61.1363C295.509 61.4341 295.557 61.6406 295.657 61.7573C295.759 61.8725 295.931 61.9294 296.172 61.9294C296.426 61.9294 296.6 61.8801 296.702 61.7828C296.8 61.684 296.854 61.47 296.854 61.1348V60.8774H298.415V61.1677C298.415 61.7483 298.228 62.1854 297.842 62.4801C297.462 62.7734 296.893 62.92 296.138 62.92C295.457 62.92 294.921 62.7643 294.53 62.4531C294.141 62.1449 293.944 61.7139 293.944 61.1691V58.622C293.944 58.1327 294.159 57.7286 294.59 57.4189C295.02 57.1107 295.57 56.9565 296.251 56.9565C296.946 56.9565 297.48 57.1002 297.854 57.386C298.227 57.6719 298.412 58.0848 298.412 58.6207C298.412 58.6207 298.412 60.0678 298.412 60.0678ZM281.095 49.4726H282.88V45.1222L284.959 38.9866H283.143L282.039 43.1798H281.925L280.767 38.9866H278.967L281.094 45.3183C281.095 45.3183 281.095 49.4726 281.095 49.4726ZM290.163 58.1971L289.833 58.251L289.511 58.4172V61.8262C289.637 61.9145 289.761 61.9819 289.881 62.0192L290.256 62.0775C290.448 62.0775 290.587 62.0401 290.677 61.9608C290.765 61.8845 290.811 61.7588 290.811 61.5867V58.7598C290.811 58.5727 290.759 58.4335 290.648 58.3393C290.535 58.2451 290.374 58.1971 290.163 58.1971Z" fill="white"/>
<path d="M296.256 57.9486C296.013 57.9486 295.841 57.9996 295.735 58.1043C295.63 58.2046 295.579 58.3752 295.579 58.613V59.1848H296.922V58.613C296.922 58.3752 296.866 58.206 296.761 58.1043C296.658 57.9996 296.486 57.9486 296.256 57.9486Z" fill="white"/>
<path d="M365.829 77.24C378.989 77.24 389.658 66.665 389.658 53.62C389.658 40.575 378.989 30 365.829 30C352.669 30 342 40.575 342 53.62C342 66.665 352.669 77.24 365.829 77.24Z" fill="#DC4E41"/>
<path d="M350.296 54.6772C350.211 58.7412 353.035 62.6195 356.92 63.8843C360.579 65.1028 365.077 64.1913 367.512 61.0852C369.29 58.9087 369.694 56.0073 369.502 53.2965C366.368 53.2687 363.234 53.278 360.105 53.2826C360.1 54.3892 360.105 55.4915 360.11 56.598C361.986 56.6494 363.863 56.6258 365.739 56.6633C365.266 58.2721 364.187 59.7694 362.549 60.3504C359.388 61.7315 355.353 59.9273 354.359 56.6397C353.158 53.4915 355.124 49.6923 358.369 48.7765C360.382 48.0746 362.455 48.865 364.177 49.902C365.05 49.0927 365.866 48.2279 366.668 47.3538C364.712 45.7311 362.197 44.7361 359.613 44.9546C354.541 45.0144 350.103 49.6553 350.296 54.6772ZM375.6 50.4919C375.591 51.4174 375.581 52.3475 375.576 53.2725C374.638 53.2818 373.705 53.2864 372.771 53.2911C372.771 54.2165 372.771 55.137 372.771 56.0624C373.705 56.0671 374.643 56.0717 375.576 56.0814C375.586 57.0069 375.586 57.9319 375.595 58.862C376.524 58.862 377.458 58.8574 378.391 58.862C378.396 57.9319 378.4 57.0069 378.41 56.0767C379.343 56.0721 380.282 56.0675 381.215 56.0628C381.215 55.1374 381.215 54.217 381.215 53.2915C380.282 53.2868 379.344 53.2822 378.41 53.273C378.405 52.3475 378.396 51.4174 378.391 50.4923C377.458 50.4919 376.529 50.4919 375.6 50.4919Z" fill="#DC4E41"/>
<path d="M350.296 54.6772C350.103 49.6553 354.541 45.0145 359.612 44.9543C362.197 44.7357 364.712 45.7307 366.668 47.3534C365.865 48.228 365.049 49.0924 364.177 49.9016C362.455 48.8646 360.382 48.0743 358.369 48.7762C355.123 49.6924 353.157 53.4915 354.358 56.6393C355.353 59.9269 359.387 61.7311 362.549 60.3501C364.186 59.769 365.265 58.2717 365.739 56.6629C363.863 56.6259 361.986 56.649 360.11 56.5976C360.105 55.4911 360.1 54.3888 360.105 53.2823C363.234 53.2776 366.368 53.2684 369.501 53.2962C369.694 56.0073 369.29 58.9088 367.512 61.0848C365.077 64.1909 360.579 65.1025 356.919 63.884C353.035 62.6195 350.211 58.7412 350.296 54.6772ZM375.6 50.492C376.529 50.492 377.458 50.492 378.391 50.492C378.396 51.4174 378.405 52.3475 378.41 53.2726C379.343 53.2819 380.282 53.2865 381.215 53.2911C381.215 54.2166 381.215 55.137 381.215 56.0625C380.282 56.0671 379.344 56.0717 378.41 56.0764C378.401 57.0065 378.396 57.9315 378.391 58.8616C377.458 58.857 376.524 58.8616 375.595 58.8616C375.586 57.9315 375.586 57.0065 375.576 56.081C374.643 56.0713 373.705 56.0671 372.771 56.0621C372.771 55.1366 372.771 54.2162 372.771 53.2907C373.705 53.2861 374.638 53.2814 375.576 53.2722C375.581 52.3475 375.59 51.4174 375.6 50.492Z" fill="white"/>
<path d="M443.829 77.24C456.989 77.24 467.658 66.665 467.658 53.62C467.658 40.575 456.989 30 443.829 30C430.669 30 420 40.575 420 53.62C420 66.665 430.669 77.24 443.829 77.24Z" fill="#007AB9"/>
<path d="M458.067 55.5205V65.2586H452.371V56.1731C452.371 53.8919 451.549 52.334 449.486 52.334C447.913 52.334 446.978 53.3828 446.565 54.3984C446.415 54.7613 446.376 55.2653 446.376 55.7744V65.2582H440.68C440.68 65.2582 440.756 49.8704 440.68 48.2775H446.377V50.6839C446.365 50.7028 446.349 50.7213 446.339 50.7394H446.377V50.6839C447.134 49.5293 448.484 47.8788 451.51 47.8788C455.257 47.8788 458.067 50.3058 458.067 55.5205ZM434.721 40.0923C432.773 40.0923 431.498 41.3601 431.498 43.0258C431.498 44.6561 432.736 45.9605 434.646 45.9605H434.683C436.67 45.9605 437.905 44.6561 437.905 43.0258C437.867 41.3601 436.67 40.0923 434.721 40.0923ZM431.836 65.2586H437.531V48.2775H431.836V65.2586Z" fill="white"/>
<path d="M209.829 155.658C222.989 155.658 233.658 144.989 233.658 131.829C233.658 118.669 222.989 108 209.829 108C196.669 108 186 118.669 186 131.829C186 144.989 196.669 155.658 209.829 155.658Z" fill="#CB2027"/>
<path d="M211.752 139.909C209.951 139.77 209.194 138.877 207.781 138.019C207.004 142.093 206.055 145.998 203.245 148.039C202.376 141.881 204.518 137.256 205.513 132.347C203.817 129.492 205.717 123.747 209.293 125.163C213.695 126.903 205.482 135.777 210.996 136.885C216.752 138.042 219.102 126.897 215.532 123.272C210.375 118.038 200.519 123.153 201.731 130.645C202.026 132.477 203.919 133.033 202.487 135.56C199.186 134.829 198.202 132.226 198.328 128.755C198.533 123.074 203.433 119.095 208.349 118.545C214.565 117.849 220.4 120.828 221.206 126.675C222.112 133.275 218.399 140.422 211.752 139.909Z" fill="#F1F2F2"/>
<path d="M287.829 155.658C300.989 155.658 311.658 144.989 311.658 131.829C311.658 118.669 300.989 108 287.829 108C274.669 108 264 118.669 264 131.829C264 144.989 274.669 155.658 287.829 155.658Z" fill="#19D33E"/>
<path d="M275.042 144.95L276.925 138.261C275.714 136.203 275.076 133.862 275.076 131.457C275.076 124.052 281.101 118.027 288.506 118.027C295.911 118.027 301.936 124.052 301.936 131.457C301.936 138.862 295.911 144.887 288.506 144.887C286.199 144.887 283.939 144.296 281.94 143.174L275.042 144.95ZM282.293 140.731L282.704 140.982C284.447 142.046 286.453 142.608 288.506 142.608C294.655 142.608 299.657 137.606 299.657 131.457C299.657 125.308 294.655 120.305 288.506 120.305C282.357 120.305 277.354 125.308 277.354 131.457C277.354 133.599 277.963 135.68 279.115 137.474L279.392 137.905L278.307 141.757L282.293 140.731Z" fill="white"/>
<path d="M284.733 125.206L283.862 125.159C283.588 125.144 283.32 125.235 283.113 125.415C282.69 125.782 282.015 126.491 281.807 127.415C281.498 128.793 281.976 130.481 283.214 132.168C284.451 133.856 286.757 136.556 290.836 137.709C292.15 138.081 293.183 137.83 293.981 137.32C294.613 136.916 295.048 136.267 295.205 135.534L295.344 134.884C295.389 134.678 295.284 134.468 295.092 134.38L292.147 133.022C291.955 132.934 291.729 132.99 291.6 133.156L290.444 134.655C290.357 134.768 290.207 134.813 290.072 134.766C289.28 134.488 286.628 133.377 285.173 130.574C285.11 130.452 285.125 130.304 285.215 130.201L286.32 128.922C286.433 128.792 286.461 128.608 286.393 128.45L285.124 125.48C285.056 125.322 284.905 125.216 284.733 125.206Z" fill="white"/>
<path d="M365.829 155.658C378.989 155.658 389.658 144.989 389.658 131.829C389.658 118.669 378.989 108 365.829 108C352.669 108 342 118.669 342 131.829C342 144.989 352.669 155.658 365.829 155.658Z" fill="#7D3DAF"/>
<path d="M379.277 125.032L379.268 124.999C378.599 122.272 375.584 119.346 372.815 118.738L372.783 118.731C368.304 117.869 363.762 117.869 359.284 118.731L359.252 118.738C356.484 119.346 353.468 122.272 352.798 124.999L352.791 125.032C351.964 128.84 351.964 132.702 352.791 136.51L352.798 136.543C353.439 139.154 356.23 141.945 358.896 142.713V145.757C358.896 146.858 360.228 147.399 360.985 146.605L364.043 143.399C364.706 143.436 365.37 143.457 366.034 143.457C368.288 143.457 370.544 143.242 372.783 142.811L372.815 142.805C375.584 142.196 378.599 139.27 379.268 136.543L379.277 136.51C380.103 132.702 380.103 128.84 379.277 125.032ZM376.856 135.958C376.41 137.737 374.12 139.948 372.301 140.357C369.919 140.814 367.519 141.009 365.121 140.942C365.073 140.941 365.027 140.959 364.994 140.994C364.654 141.346 362.761 143.305 362.761 143.305L360.386 145.763C360.212 145.946 359.907 145.822 359.907 145.57V140.527C359.907 140.444 359.848 140.373 359.767 140.357C359.766 140.357 359.766 140.357 359.766 140.357C357.946 139.948 355.658 137.737 355.21 135.958C354.466 132.516 354.466 129.026 355.21 125.584C355.658 123.806 357.946 121.594 359.766 121.185C363.925 120.388 368.142 120.388 372.301 121.185C374.121 121.594 376.41 123.806 376.856 125.584C377.601 129.027 377.601 132.516 376.856 135.958Z" fill="white"/>
<path d="M369.991 138.285C369.711 138.2 369.445 138.142 369.197 138.039C366.632 136.966 364.272 135.581 362.402 133.459C361.339 132.252 360.506 130.89 359.803 129.448C359.469 128.764 359.188 128.054 358.901 127.348C358.64 126.704 359.025 126.039 359.43 125.554C359.811 125.099 360.3 124.75 360.83 124.493C361.244 124.293 361.652 124.409 361.954 124.762C362.607 125.527 363.207 126.33 363.692 127.216C363.991 127.761 363.909 128.427 363.368 128.798C363.236 128.888 363.116 128.994 362.994 129.096C362.886 129.185 362.785 129.275 362.711 129.396C362.577 129.617 362.57 129.878 362.657 130.118C363.325 131.968 364.45 133.407 366.297 134.182C366.592 134.306 366.889 134.45 367.229 134.41C367.799 134.343 367.984 133.712 368.383 133.383C368.774 133.061 369.273 133.057 369.694 133.325C370.114 133.593 370.522 133.882 370.928 134.173C371.326 134.459 371.722 134.739 372.089 135.065C372.442 135.378 372.563 135.789 372.364 136.215C372.001 136.994 371.471 137.642 370.708 138.055C370.492 138.172 370.234 138.21 369.991 138.285C369.711 138.2 370.234 138.21 369.991 138.285ZM366.041 123.603C369.396 123.698 372.151 125.943 372.742 129.287C372.842 129.857 372.878 130.44 372.923 131.018C372.942 131.262 372.805 131.493 372.545 131.496C372.276 131.499 372.155 131.272 372.137 131.029C372.103 130.548 372.079 130.064 372.013 129.587C371.666 127.067 369.673 124.982 367.185 124.534C366.811 124.467 366.428 124.449 366.049 124.409C365.809 124.384 365.495 124.369 365.442 124.068C365.397 123.817 365.608 123.616 365.846 123.603C365.911 123.599 365.976 123.602 366.041 123.603C369.396 123.698 365.976 123.602 366.041 123.603Z" fill="white"/>
<path d="M371.139 130.268C371.134 130.31 371.131 130.409 371.106 130.503C371.017 130.842 370.507 130.885 370.389 130.542C370.354 130.44 370.349 130.325 370.349 130.215C370.348 129.499 370.193 128.783 369.835 128.159C369.466 127.519 368.904 126.98 368.244 126.654C367.844 126.457 367.413 126.334 366.975 126.261C366.784 126.23 366.591 126.21 366.399 126.183C366.166 126.151 366.042 126.001 366.053 125.77C366.063 125.553 366.22 125.397 366.454 125.41C367.224 125.454 367.968 125.622 368.653 125.988C370.045 126.731 370.84 127.904 371.072 129.471C371.082 129.542 371.099 129.612 371.104 129.684C371.118 129.86 371.126 130.036 371.139 130.268C371.134 130.31 371.126 130.036 371.139 130.268Z" fill="white"/>
<path d="M369.052 130.186C368.772 130.191 368.622 130.034 368.593 129.775C368.572 129.594 368.557 129.41 368.514 129.234C368.429 128.888 368.247 128.566 367.957 128.354C367.821 128.254 367.666 128.181 367.504 128.133C367.298 128.073 367.084 128.09 366.879 128.039C366.656 127.984 366.532 127.802 366.568 127.591C366.599 127.399 366.785 127.249 366.993 127.264C368.294 127.359 369.223 128.037 369.356 129.581C369.365 129.69 369.376 129.805 369.352 129.909C369.311 130.088 369.18 130.177 369.052 130.186C368.772 130.191 369.18 130.177 369.052 130.186Z" fill="white"/>
<path d="M443.829 155.658C456.989 155.658 467.658 144.989 467.658 131.829C467.658 118.669 456.989 108 443.829 108C430.669 108 420 118.669 420 131.829C420 144.989 430.669 155.658 443.829 155.658Z" fill="#2BA5E1"/>
<path d="M430.424 131.071L435.954 133.139L438.094 140.036C438.231 140.477 438.771 140.641 439.128 140.347L442.211 137.83C442.534 137.566 442.994 137.553 443.332 137.798L448.892 141.843C449.275 142.121 449.817 141.911 449.913 141.448L453.986 121.819C454.091 121.313 453.594 120.891 453.113 121.077L430.417 129.849C429.857 130.065 429.862 130.86 430.424 131.071ZM437.75 132.038L448.557 125.369C448.752 125.249 448.951 125.512 448.785 125.667L439.865 133.974C439.552 134.267 439.349 134.658 439.292 135.083L438.988 137.339C438.948 137.64 438.526 137.67 438.443 137.378L437.274 133.264C437.14 132.795 437.335 132.294 437.75 132.038Z" fill="white"/>
<path d="M54.5 155C63.6127 155 71 144.703 71 132C71 119.297 63.6127 109 54.5 109C45.3873 109 38 119.297 38 132C38 144.703 45.3873 155 54.5 155Z" fill="white"/>
<path d="M53.9613 127.84C56.2472 127.832 58.0678 125.996 58.0595 123.705C58.0511 121.413 56.2266 119.59 53.9398 119.588C51.6338 119.585 49.7922 121.443 49.8098 123.755C49.827 126.037 51.6681 127.849 53.9613 127.84Z" fill="#FF9A00"/>
<path d="M53.9388 108C40.7177 108 30 118.718 30 131.939C30 145.159 40.7177 155.878 53.9388 155.878C67.1598 155.878 77.8776 145.159 77.8776 131.939C77.8776 118.718 67.1598 108 53.9388 108ZM53.9731 115.28C58.6359 115.293 62.3784 119.107 62.3545 123.821C62.3309 128.426 58.5272 132.159 53.8722 132.144C49.2647 132.128 45.4859 128.308 45.5133 123.693C45.5393 119.028 49.32 115.267 53.9731 115.28ZM63.4173 135.456C62.3863 136.515 61.1451 137.281 59.7669 137.815C58.464 138.32 57.0362 138.575 55.6227 138.744C55.8367 138.976 55.9371 139.09 56.0704 139.224C57.9884 141.152 59.9158 143.07 61.8274 145.004C62.4789 145.663 62.6145 146.48 62.256 147.246C61.8647 148.083 60.9865 148.634 60.1249 148.575C59.5793 148.537 59.1536 148.266 58.776 147.886C57.3282 146.429 55.8529 144.998 54.4354 143.514C54.0216 143.082 53.8237 143.164 53.4588 143.54C52.0026 145.039 50.5224 146.515 49.034 147.983C48.3654 148.642 47.57 148.762 46.7941 148.385C45.9698 147.986 45.4457 147.144 45.4859 146.297C45.5143 145.726 45.7954 145.288 46.1882 144.897C48.0872 143.002 49.9802 141.101 51.8738 139.202C51.9997 139.076 52.1162 138.942 52.2989 138.746C49.7162 138.477 47.3873 137.841 45.3933 136.282C45.1455 136.088 44.8903 135.901 44.665 135.683C43.7917 134.845 43.704 133.885 44.3941 132.896C44.9853 132.05 45.9767 131.824 47.0077 132.31C47.2075 132.404 47.3976 132.522 47.5798 132.648C51.2953 135.201 56.4 135.271 60.1303 132.762C60.4996 132.48 60.8949 132.247 61.3528 132.13C62.2423 131.901 63.073 132.229 63.55 133.008C64.0962 133.897 64.0898 134.765 63.4173 135.456Z" fill="#FF9A00"/>
<path d="M131.829 155.658C144.989 155.658 155.658 144.989 155.658 131.829C155.658 118.669 144.989 108 131.829 108C118.669 108 108 118.669 108 131.829C108 144.989 118.669 155.658 131.829 155.658Z" fill="url(#paint0_linear)"/>
<path d="M137.502 118.62H126.876C122.557 118.62 119.044 122.133 119.044 126.452V137.078C119.044 141.397 122.557 144.91 126.876 144.91H137.502C141.821 144.91 145.334 141.397 145.334 137.078V126.452C145.334 122.133 141.821 118.62 137.502 118.62ZM142.689 137.078C142.689 139.943 140.367 142.265 137.502 142.265H126.876C124.011 142.265 121.689 139.943 121.689 137.078V126.452C121.689 123.587 124.011 121.265 126.876 121.265H137.502C140.367 121.265 142.689 123.587 142.689 126.452V137.078Z" fill="white"/>
<path d="M132.189 124.965C128.44 124.965 125.389 128.016 125.389 131.765C125.389 135.514 128.44 138.565 132.189 138.565C135.938 138.565 138.989 135.514 138.989 131.765C138.989 128.016 135.938 124.965 132.189 124.965ZM132.189 135.92C129.894 135.92 128.034 134.06 128.034 131.765C128.034 129.47 129.894 127.61 132.189 127.61C134.484 127.61 136.344 129.47 136.344 131.765C136.344 134.06 134.484 135.92 132.189 135.92Z" fill="white"/>
<path d="M139.002 126.646C139.902 126.646 140.631 125.917 140.631 125.017C140.631 124.117 139.902 123.388 139.002 123.388C138.102 123.388 137.373 124.117 137.373 125.017C137.373 125.917 138.102 126.646 139.002 126.646Z" fill="white"/>
<defs>
<linearGradient id="paint0_linear" x1="148.035" y1="155.658" x2="116.898" y2="108" gradientUnits="userSpaceOnUse">
<stop stop-color="#E09B3D"/>
<stop offset="0.3" stop-color="#C74C4D"/>
<stop offset="0.6" stop-color="#C21975"/>
<stop offset="1" stop-color="#7024C4"/>
</linearGradient>
</defs>
</svg>
